<svg xmlns="http://www.w3.org/2000/svg" id="logo-76" width="218" height="20" viewBox="0 -5 180 50" fill="none"><path class="ccustom" fill-rule="evenodd" clip-rule="evenodd" d="M93.2277 0C104.273 0 113.228 8.95431 113.228 20C113.228 31.0457 104.273 40 93.2277 40C82.182 40 73.2277 31.0457 73.2277 20C73.2277 8.95431 82.182 0 93.2277 0ZM92.5048 1.49659C90.2231 1.81769 88.0505 3.65108 86.364 6.7174C85.8748 7.60683 85.4334 8.58946 85.0488 9.65044C87.342 9.07417 89.8611 8.73442 92.5048 8.68187V1.49659ZM83.3584 10.1308C83.8368 8.62958 84.4219 7.2484 85.0972 6.02065C85.9332 4.50059 86.9254 3.18795 88.0433 2.17977C81.9644 3.94523 77.1729 8.73679 75.4074 14.8157C76.4156 13.6978 77.7282 12.7056 79.2483 11.8696C80.4761 11.1943 81.8572 10.6091 83.3584 10.1308ZM82.8781 11.8211C82.3018 14.1143 81.9621 16.6334 81.9095 19.2771H74.7242C75.0453 16.9954 76.8787 14.8228 79.9451 13.1364C80.8345 12.6472 81.8171 12.2058 82.8781 11.8211ZM83.3556 19.2771C83.4153 16.392 83.8307 13.6834 84.5179 11.2902C86.9111 10.603 89.6197 10.1876 92.5048 10.1279V13.2508C91.4285 16.0062 89.2333 18.2012 86.4778 19.2771H83.3556ZM81.9095 20.7229H74.7242C75.0453 23.0046 76.8787 25.1771 79.9451 26.8636C80.8345 27.3528 81.8171 27.7942 82.8781 28.1789C82.3018 25.8857 81.9621 23.3666 81.9095 20.7229ZM84.5179 28.7098C83.8307 26.3166 83.4153 23.608 83.3556 20.7229H86.4778C89.2333 21.7988 91.4285 23.9938 92.5048 26.7492V29.8721C89.6197 29.8124 86.9111 29.397 84.5179 28.7098ZM83.3584 29.8692C81.8572 29.3909 80.4761 28.8057 79.2483 28.1304C77.7282 27.2944 76.4156 26.3022 75.4074 25.1843C77.1729 31.2632 81.9644 36.0548 88.0433 37.8202C86.9254 36.812 85.9332 35.4994 85.0972 33.9793C84.4219 32.7516 83.8368 31.3704 83.3584 29.8692ZM92.5048 38.5034C90.2231 38.1823 88.0505 36.3489 86.364 33.2826C85.8748 32.3932 85.4334 31.4105 85.0488 30.3496C87.342 30.9258 89.8611 31.2656 92.5048 31.3181V38.5034ZM98.412 37.8202C99.5299 36.812 100.522 35.4994 101.358 33.9793C102.033 32.7516 102.619 31.3704 103.097 29.8692C104.598 29.3909 105.979 28.8057 107.207 28.1304C108.727 27.2944 110.04 26.3022 111.048 25.1843C109.282 31.2632 104.491 36.0548 98.412 37.8202ZM101.407 30.3496C101.022 31.4105 100.58 32.3932 100.091 33.2826C98.4048 36.3489 96.2322 38.1823 93.9505 38.5034V31.3181C96.5942 31.2656 99.1133 30.9258 101.407 30.3496ZM103.577 28.1789C104.638 27.7942 105.621 27.3528 106.51 26.8636C109.577 25.1772 111.41 23.0046 111.731 20.7229H104.546C104.493 23.3666 104.153 25.8857 103.577 28.1789ZM103.1 20.7229C103.04 23.608 102.625 26.3166 101.937 28.7098C99.5442 29.397 96.8356 29.8124 93.9505 29.8721V26.7515C95.0265 23.9951 97.2222 21.7991 99.9784 20.7229H103.1ZM104.546 19.2771H111.731C111.41 16.9954 109.577 14.8228 106.51 13.1364C105.621 12.6472 104.638 12.2058 103.577 11.8211C104.153 14.1143 104.493 16.6334 104.546 19.2771ZM101.937 11.2902C102.625 13.6834 103.04 16.392 103.1 19.2771H99.9785C97.2222 18.2009 95.0265 16.0049 93.9505 13.2485V10.1279C96.8356 10.1876 99.5442 10.603 101.937 11.2902ZM103.097 10.1308C104.598 10.6091 105.979 11.1943 107.207 11.8696C108.727 12.7056 110.04 13.6978 111.048 14.8157C109.282 8.73679 104.491 3.94523 98.412 2.17977C99.5299 3.18795 100.522 4.50059 101.358 6.02065C102.033 7.2484 102.619 8.62958 103.097 10.1308ZM93.9505 1.49659C96.2322 1.81769 98.4048 3.65108 100.091 6.7174C100.58 7.60684 101.022 8.58946 101.407 9.65044C99.1133 9.07417 96.5942 8.73442 93.9505 8.68187V1.49659Z" fill="white"/></svg>